<svg version="1.2" xmlns="http://www.w3.org/2000/svg" viewBox="0 0 845 152" width="845" height="152"><style>.a{opacity:0;stroke:#000;paint-order:stroke fill markers;stroke-linejoin:round;stroke-width:2}.b{stroke:#000;stroke-width:2}</style><path class="a" d="m-7.6 116v-97.7h71.2v9.3h-61.8v31.9h49.5v9.4h-49.5v37.8h66.4v9.3zm-3.5 0v-97.7h71.1v9.3h-61.7v31.9h49.5v9.4h-49.5v37.8h66.4v9.3zm100.9 0v-97.7h9.4v97.7zm-3.5 0v-97.7h9.4v97.7zm40.5 0v-69.2h9.4v69.2zm0-85.5v-11.2h9.4v11.2zm-3.5 85.5v-69.2h9.4v69.2zm0-85.5v-11.2h9.4v11.2zm35.6 25.1v-8.8h55.4v9.2l-47.1 50.9h49.1v9.1h-60.9v-9.5l47.3-50.9zm-3.5 0v-8.8h55.4v9.2l-47.1 50.9h49.1v9.1h-60.8v-9.5l47.2-50.9zm132.9 14.5v29.3q0 9.1 2 16.6h-9.6q-1.9-6.5-1.9-11.1-5.7 5.9-13.2 9.2-7.4 3.4-14.8 3.4-9.4 0-15.7-5.8-6.2-5.8-6.2-13 0-7.1 3.7-11.8 3.7-4.7 12.2-8.1 8.6-3.4 28.4-7.5l5.6-1.2v-4.3q0-5.7-4.8-9.3-4.7-3.6-10.8-3.6-11.7 0-25.8 11.6l-6.8-5.8q5.9-6.1 14.2-9.8 8.4-3.6 16.8-3.6 12.1 0 19.4 6.6 7.3 6.6 7.3 18.2zm-3.5 0v29.3q0 9.1 2 16.6h-9.6q-1.8-6.5-1.8-11.1-5.8 5.9-13.2 9.2-7.4 3.4-14.9 3.4-9.4 0-15.7-5.8-6.2-5.8-6.2-13 0-7.1 3.7-11.8 3.8-4.7 12.3-8.1 8.5-3.4 28.3-7.5l5.7-1.2v-4.3q0-5.7-4.9-9.3-4.7-3.6-10.8-3.6-11.7 0-25.7 11.6l-6.9-5.8q5.9-6.1 14.3-9.8 8.3-3.6 16.7-3.6 12.1 0 19.4 6.6 7.3 6.6 7.3 18.2zm-6 27v-19.9l-4.5 0.9q-0.7 0.2-2 0.4-16.1 3.3-21.8 5.7-5.7 2.5-8.4 6-2.7 3.4-2.7 8.4 0 4.4 4.2 7.5 4.2 3.1 9.8 3.1 10.9 0 25.4-12.1zm-3.4 0v-19.9l-4.6 0.9q-0.6 0.2-1.9 0.4-16.1 3.3-21.9 5.7-5.7 2.5-8.4 6-2.7 3.4-2.7 8.4 0 4.4 4.2 7.5 4.2 3.1 9.8 3.1 10.9 0 25.5-12.1zm36.3 18.9v-97.7h9.4v37.3q10.1-10.3 20.7-10.3 12.5 0 20.4 10.1 7.8 10.2 7.8 25.9 0 16.1-7.8 26.1-7.9 10.1-20.7 10.1-4.8 0-9-1.8-4-1.8-9.3-6.8-1.4-1.4-2.1-2v9.1zm-3.5 0v-97.7h9.3v37.3q10.2-10.3 20.8-10.3 12.5 0 20.3 10.1 7.9 10.2 7.9 25.9 0 16.1-7.9 26.1-7.8 10.1-20.7 10.1-4.8 0-8.9-1.8-4.1-1.8-9.3-6.8-1.5-1.4-2.2-2v9.1zm12.8-52.1v34.8q1 0.9 3 2.5 5.6 4.8 9.1 6.2 3.4 1.4 7.6 1.4 9.2 0 14.5-7.6 5.4-7.6 5.4-20.2 0-12.7-5.5-20-5.4-7.4-15.1-7.4-8 0-19 10.3zm-3.4 0v34.8q1 0.9 2.9 2.5 5.6 4.8 9.1 6.2 3.5 1.4 7.6 1.4 9.3 0 14.6-7.6 5.3-7.6 5.3-20.2 0-12.7-5.5-20-5.4-7.4-15-7.4-8.1 0-19 10.3zm129.5 18.3h-52.1q0.3 8.4 3.1 14.4 2.8 6 8 9.3 5.2 3.3 10.3 3.3 12.9 0 23-14.2l7.7 5.4q-5.7 7.6-13.7 12.2-7.9 4.6-16.3 4.6-8.3 0-15.9-4.6-7.6-4.7-11.6-12.7-4-8.1-4-18.9 0-10.5 4-18.4 4.1-8 11.7-12.6 7.6-4.7 15.4-4.7 8.2 0 15.6 4.7 7.5 4.7 10.9 12.1 3.5 7.4 3.9 20.1zm-3.5 0h-52.1q0.3 8.4 3.1 14.4 2.8 6 8 9.3 5.2 3.3 10.4 3.3 12.8 0 23-14.2l7.6 5.4q-5.7 7.6-13.7 12.2-7.9 4.6-16.2 4.6-8.4 0-16-4.6-7.6-4.7-11.6-12.7-4-8.1-4-18.9 0-10.5 4.1-18.4 4-8 11.6-12.6 7.6-4.7 15.4-4.7 8.2 0 15.6 4.7 7.5 4.7 10.9 12.1 3.5 7.4 3.9 20.1zm-48.2-8.4h41.8q-1-9.6-6.8-15.1-5.8-5.5-13.5-5.5-8.3 0-14.8 6.4-6.4 6.3-6.7 14.2zm-3.5 0h41.8q-1-9.6-6.8-15.1-5.8-5.5-13.5-5.5-8.3 0-14.7 6.4-6.5 6.3-6.8 14.2zm79.7-27v-25.2h9.4v25.2h13.2v8.5h-13.2v43.1q0 5 2.7 8.1 2.7 3.2 7.7 3.2 1.6 0 2.6-0.5 0.8-0.3 1.5-0.5v8.3q-0.9 0.2-2 0.4-1.4 0.3-3.4 0.3-10 0-14.2-4.1-4.3-4.1-4.3-13.6v-44.7h-10.7v-8.5zm-3.4 0v-25.2h9.3v25.2h13.2v8.5h-13.2v43.1q0 5 2.7 8.1 2.7 3.2 7.7 3.2 1.6 0 2.6-0.5 0.8-0.3 1.6-0.5v8.3q-0.9 0.2-2 0.4-1.5 0.3-3.4 0.3-10 0-14.3-4.1-4.2-4.1-4.2-13.6v-44.7h-10.7v-8.5zm43.3 69.2v-97.7h9.3v36.1q11.9-5.9 16.9-7.5 5.2-1.6 9.9-1.6 8.9 0 13.9 6 5.1 6 5.1 17.1v47.6h-9.4v-49.7q0-12.3-11.9-12.3-10.5 0-24.5 8.5v53.5zm-3.5 0v-97.7h9.4v36.1q11.8-5.9 16.9-7.5 5.2-1.6 9.9-1.6 8.9 0 13.9 6 5.1 6 5.1 17.1v47.6h-9.4v-49.7q0-12.3-11.9-12.3-10.5 0-24.5 8.5v53.5zm128.2 0v-97.7h39.2q13.3 0 20.7 3.1 7.5 3.1 12.1 9.4 4.5 6.3 4.5 14.1 0 18.3-21.3 24.8l23.6 46.3h-10.2l-22.9-44.3h-36.3v44.3zm-3.5 0v-97.7h39.2q13.3 0 20.8 3.1 7.4 3.1 12 9.4 4.6 6.3 4.6 14.1 0 18.3-21.4 24.8l23.6 46.3h-10.2l-22.9-44.3h-36.2v44.3zm46.6-89.2h-33.7v36.4h30.2q12.7 0 19.5-4.7 6.9-4.7 6.9-13.7 0-8.4-6.1-13.1-6-4.9-16.8-4.9zm-3.6 0h-33.6v36.4h30.2q12.6 0 19.4-4.7 6.9-4.7 6.9-13.7 0-8.4-6-13.1-6-4.9-16.9-4.9zm75.8 89.2l-26.2-69.2h9.7l21.3 56.5 21.5-56.5h9.7l-27.9 73.7q-4.4 11.7-7.7 15.8-3.2 4-8.1 5.9-4.7 1.9-11.9 1.9-3.8 0-9.1-1l2.5-9q3.1 0.6 6.6 0.6 5.2 0 8.4-1.2 3.3-1.3 5.5-4.2 2.1-2.9 4.5-10.1 0.5-1.6 1.2-3.2zm-3.5 0l-26.1-69.2h9.6l21.3 56.5 21.6-56.5h9.6l-27.9 73.7q-4.4 11.7-7.6 15.8-3.3 4-8.2 5.9-4.7 1.9-11.9 1.9-3.8 0-9.1-1l2.6-9q3 0.6 6.5 0.6 5.2 0 8.5-1.2 3.2-1.3 5.4-4.2 2.1-2.9 4.5-10.1 0.6-1.6 1.2-3.2zm57.7 0v-97.7h9.4v97.7zm-3.5 0v-97.7h9.4v97.7zm95.8-33.8h-52.1q0.3 8.4 3.1 14.4 2.8 6 8 9.3 5.2 3.3 10.4 3.3 12.8 0 22.9-14.2l7.7 5.4q-5.7 7.6-13.7 12.2-7.9 4.6-16.2 4.6-8.4 0-16-4.6-7.6-4.7-11.6-12.7-4-8.1-4-18.9 0-10.5 4.1-18.4 4-8 11.6-12.6 7.6-4.7 15.4-4.7 8.2 0 15.6 4.7 7.5 4.7 10.9 12.1 3.5 7.4 3.9 20.1zm-3.5 0h-52.1q0.3 8.4 3.1 14.4 2.9 6 8 9.3 5.2 3.3 10.4 3.3 12.8 0 23-14.2l7.6 5.4q-5.7 7.6-13.7 12.2-7.9 4.6-16.2 4.6-8.4 0-16-4.6-7.6-4.7-11.6-12.7-4-8.1-4-18.9 0-10.5 4.1-18.4 4-8 11.6-12.6 7.6-4.7 15.4-4.7 8.2 0 15.6 4.7 7.5 4.7 10.9 12.1 3.5 7.4 3.9 20.1zm-48.2-8.4h41.8q-1-9.6-6.8-15.1-5.8-5.5-13.5-5.5-8.3 0-14.7 6.4-6.5 6.3-6.8 14.2zm-3.5 0h41.8q-0.9-9.6-6.8-15.1-5.8-5.5-13.5-5.5-8.3 0-14.7 6.4-6.5 6.3-6.8 14.2z"/><path class="b" d="m91.5 88.5l-15.2-41.2-15.2 41.2zm-53.2 30.5l31.6-82.8h12.7l31.6 82.8h-11.7l-7.5-21.2h-37.3l-7.5 21.2zm50.1-30.5l-15.2-41.2-15.2 41.2zm-53.2 30.5l31.6-82.8h12.7l31.6 82.8h-11.7l-7.5-21.2h-37.3l-7.6 21.2zm93.8 0v-86.3h10.2v86.3zm-3 0v-86.3h10.2v86.3zm37 0v-62.1h10.2v62.1zm0-73.3v-13h10.2v13zm-2.9 73.3v-62.1h10.2v62.1zm0-73.3v-13h10.2v13zm77.5 13v9.7q-4.3-2.2-9-3.3-4.6-1.2-9.6-1.2-7.6 0-11.4 2.4-3.8 2.3-3.8 7 0 3.5 2.7 5.6 2.7 2 10.9 3.8l3.5 0.8q10.9 2.3 15.5 6.6 4.6 4.2 4.6 11.8 0 8.6-6.9 13.7-6.8 5-18.8 5-5 0-10.4-0.9-5.4-1-11.4-3v-10.5q5.7 2.9 11.1 4.4 5.5 1.5 10.9 1.5 7.2 0 11.1-2.5 3.9-2.5 3.9-7 0-4.1-2.8-6.3-2.8-2.2-12.3-4.3l-3.5-0.8q-9.5-2-13.7-6.1-4.3-4.2-4.3-11.4 0-8.8 6.3-13.5 6.2-4.8 17.6-4.8 5.6 0 10.6 0.8 5 0.9 9.2 2.5zm-3 0v9.7q-4.3-2.2-8.9-3.3-4.7-1.2-9.7-1.2-7.6 0-11.4 2.4-3.8 2.3-3.8 7 0 3.5 2.7 5.6 2.8 2 11 3.8l3.4 0.8q10.9 2.3 15.5 6.6 4.6 4.2 4.6 11.8 0 8.6-6.9 13.7-6.8 5-18.8 5-5 0-10.4-0.9-5.4-1-11.4-3v-10.5q5.7 2.9 11.1 4.4 5.5 1.5 10.9 1.5 7.2 0 11.1-2.5 3.9-2.5 3.9-7 0-4.1-2.8-6.3-2.8-2.2-12.3-4.3l-3.5-0.8q-9.5-2-13.7-6.1-4.3-4.2-4.3-11.4 0-8.8 6.3-13.5 6.2-4.8 17.6-4.8 5.6 0 10.6 0.8 5 0.9 9.2 2.5zm77.1 22.8v37.5h-10.2v-37.1q0-8.9-3.5-13.2-3.4-4.4-10.3-4.4-8.3 0-13 5.2-4.8 5.3-4.8 14.4v35.1h-10.2v-86.3h10.2v33.9q3.7-5.6 8.6-8.4 5-2.8 11.5-2.8 10.7 0 16.2 6.7 5.5 6.6 5.5 19.4zm-3 0v37.5h-10.2v-37.1q0-8.9-3.5-13.2-3.4-4.4-10.3-4.4-8.2 0-13 5.2-4.8 5.3-4.8 14.4v35.1h-10.2v-86.3h10.2v33.9q3.7-5.6 8.6-8.4 5-2.8 11.5-2.8 10.7 0 16.2 6.7 5.5 6.6 5.5 19.4zm26.3 37.5v-62.1h10.2v62.1zm0-73.3v-13h10.2v13zm-2.9 73.3v-62.1h10.2v62.1zm0-73.3v-13h10.2v13zm76.3 42.1h-10.1q-12.4 0-17.2 2.8-4.7 2.8-4.7 9.7 0 5.4 3.5 8.6 3.6 3.2 9.8 3.2 8.5 0 13.6-6 5.1-6.1 5.1-16zm10.2-4.3v35.5h-10.2v-9.5q-3.5 5.7-8.7 8.4-5.2 2.7-12.7 2.7-9.6 0-15.2-5.3-5.6-5.4-5.6-14.4 0-10.5 7-15.8 7-5.3 20.9-5.3h14.3v-1q0-7.1-4.6-10.9-4.6-3.9-13-3.9-5.3 0-10.4 1.3-5 1.3-9.7 3.8v-9.4q5.6-2.2 10.9-3.2 5.2-1.1 10.2-1.1 13.5 0 20.2 7 6.6 7 6.6 21.1zm-13.2 4.3h-10.1q-12.4 0-17.2 2.8-4.7 2.8-4.7 9.6 0 5.5 3.5 8.7 3.6 3.1 9.8 3.1 8.5 0 13.6-5.9 5.1-6.1 5.1-16.1zm10.2-4.2v35.4h-10.2v-9.4q-3.5 5.7-8.7 8.4-5.2 2.7-12.7 2.7-9.6 0-15.2-5.4-5.6-5.3-5.6-14.3 0-10.5 7-15.8 7-5.3 20.9-5.3h14.3v-1q0-7.1-4.6-10.9-4.6-3.9-13-3.9-5.3 0-10.4 1.3-5 1.3-9.7 3.8v-9.4q5.6-2.2 10.9-3.2 5.3-1.1 10.2-1.1 13.5 0 20.2 6.9 6.6 7 6.6 21.2zm108.8 4.9l-15.2-41.2-15.2 41.2zm-53.2 30.5l31.6-82.7h12.7l31.5 82.7h-11.6l-7.5-21.2h-37.4l-7.5 21.2zm50.2-30.5l-15.3-41.2-15.2 41.2zm-53.1 30.5l31.6-82.7h12.7l31.5 82.7h-11.6l-7.6-21.2h-37.3l-7.5 21.2zm93.8 0v-86.2h10.2v86.2zm-3 0v-86.2h10.2v86.2zm38 0v-86.2h10.2v86.2zm-3 0v-86.2h10.2v86.2zm72.9-63l0.1 10.5q-1.7-1-3.8-1.5-2-0.5-4.4-0.5-8.7 0-13.3 5.7-4.6 5.6-4.6 16.1v32.7h-10.3v-62h10.3v9.6q3.2-5.7 8.3-8.4 5.2-2.7 12.6-2.7 1 0 2.3 0.1 1.3 0.1 2.8 0.4zm-3 0l0.1 10.5q-1.7-1-3.8-1.5-2-0.5-4.4-0.5-8.7 0-13.3 5.7-4.6 5.6-4.6 16.1v32.7h-10.3v-62h10.3v9.6q3.2-5.7 8.3-8.4 5.2-2.7 12.6-2.7 1 0 2.3 0.1 1.3 0.1 2.8 0.4zm68.2 29.5v4.9h-46.9q0.7 10.6 6.3 16.1 5.7 5.5 15.9 5.5 5.9 0 11.3-1.4 5.6-1.5 11-4.4v9.7q-5.5 2.3-11.2 3.5-5.8 1.3-11.7 1.3-14.9 0-23.6-8.7-8.6-8.6-8.6-23.4 0-15.2 8.2-24.2 8.2-8.9 22.2-8.9 12.5 0 19.8 8.1 7.3 8 7.3 21.9zm-46.6-3h36.4q-0.1-8.4-4.7-13.4-4.6-5-12.1-5-8.5 0-13.7 4.8-5.1 4.9-5.9 13.6zm43.6 3v4.9h-46.9q0.7 10.6 6.3 16.1 5.7 5.5 15.9 5.5 5.9 0 11.4-1.4 5.5-1.5 10.9-4.4v9.7q-5.5 2.3-11.2 3.5-5.8 1.3-11.7 1.3-14.9 0-23.6-8.7-8.6-8.6-8.6-23.4 0-15.2 8.2-24.2 8.2-8.9 22.2-8.9 12.5 0 19.8 8.1 7.3 8 7.3 21.9zm-46.6-3h36.4q-0.1-8.4-4.7-13.4-4.5-5-12.1-5-8.5 0-13.7 4.8-5.1 4.9-5.9 13.6zm110.4-16.1v-33.6h10.2v86.2h-10.2v-9.3q-3.3 5.6-8.2 8.3-4.9 2.7-11.7 2.7-11.3 0-18.4-9-7-9-7-23.6 0-14.7 7-23.7 7.1-8.9 18.4-8.9 6.8 0 11.7 2.7 4.9 2.6 8.2 8.2zm-34.8 21.7q0 11.2 4.6 17.6 4.7 6.4 12.7 6.4 8.1 0 12.8-6.4 4.7-6.4 4.7-17.6 0-11.3-4.7-17.7-4.7-6.4-12.8-6.4-8 0-12.7 6.4-4.6 6.4-4.6 17.7zm31.8-21.7v-33.6h10.2v86.2h-10.2v-9.3q-3.3 5.6-8.2 8.3-4.9 2.7-11.7 2.7-11.3 0-18.4-9-7-9-7-23.6 0-14.7 7-23.7 7.1-8.9 18.4-8.9 6.8 0 11.7 2.7 4.9 2.6 8.2 8.2zm-34.8 21.7q0 11.2 4.6 17.6 4.7 6.4 12.8 6.4 8 0 12.7-6.4 4.7-6.4 4.7-17.6 0-11.3-4.7-17.7-4.7-6.4-12.7-6.4-8.1 0-12.8 6.4-4.6 6.4-4.6 17.7z"/></svg>